<svg xmlns="http://www.w3.org/2000/svg" width="600" height="400" viewBox="0 0 600 400"><rect width="100%" height="100%" fill="#DDDDDD"/><path fill="#999999" d="m151.83 176.035-2.15 4.06q-.38.68-.81.98t-1.07.3q-.68 0-1.46-.49-.78-.5-1.87-1.11-1.09-.6-2.55-1.1-1.45-.5-3.44-.5-1.79 0-3.13.44-1.35.43-2.26 1.2-.91.76-1.36 1.84-.45 1.07-.45 2.35 0 1.63.92 2.72.91 1.09 2.41 1.85 1.51.77 3.43 1.38t3.93 1.3q2.02.68 3.94 1.6 1.92.91 3.42 2.3 1.51 1.39 2.42 3.41.91 2.01.91 4.89 0 3.14-1.07 5.88-1.07 2.73-3.14 4.76-2.06 2.04-5.04 3.2-2.97 1.17-6.81 1.17-2.21 0-4.36-.43-2.14-.43-4.11-1.23t-3.69-1.92q-1.73-1.12-3.08-2.5l2.53-4.13q.32-.44.83-.75.52-.3 1.09-.3.8 0 1.73.65.93.66 2.21 1.46t2.99 1.46q1.71.65 4.11.65 3.68 0 5.7-1.74 2.01-1.75 2.01-5.01 0-1.82-.91-2.98-.91-1.15-2.41-1.93-1.51-.79-3.43-1.33t-3.9-1.18q-1.99-.64-3.91-1.54t-3.42-2.34-2.42-3.6q-.91-2.16-.91-5.32 0-2.53 1.01-4.93t2.93-4.26q1.92-1.85 4.73-2.97 2.82-1.12 6.47-1.12 4.09 0 7.55 1.28t5.89 3.58m13.31 21.73h14.91q0-1.54-.43-2.9t-1.3-2.38q-.86-1.03-2.19-1.62t-3.09-.59q-3.42 0-5.39 1.95t-2.51 5.54m20.16 4.77h-20.32q.19 2.52.9 4.36.7 1.84 1.85 3.04t2.74 1.8q1.58.59 3.5.59t3.31-.45q1.4-.45 2.44-.99 1.04-.55 1.82-.99.78-.45 1.52-.45.99 0 1.47.73l2.27 2.88q-1.31 1.54-2.94 2.58t-3.41 1.66q-1.77.63-3.61.88-1.84.26-3.57.26-3.43 0-6.37-1.14-2.94-1.13-5.12-3.36-2.18-2.22-3.42-5.5-1.25-3.28-1.25-7.6 0-3.36 1.09-6.32 1.08-2.96 3.12-5.15 2.03-2.19 4.96-3.47 2.92-1.28 6.6-1.28 3.11 0 5.73.99 2.63.99 4.51 2.89 1.89 1.91 2.96 4.68 1.08 2.76 1.08 6.32 0 1.79-.39 2.41-.38.63-1.47.63m15.68 15.42h-7.9v-32.83h4.83q1.53 0 2.01 1.44l.52 2.43q.86-.96 1.8-1.76.95-.8 2.02-1.38 1.07-.57 2.3-.91 1.24-.33 2.71-.33 3.1 0 5.1 1.68t2.99 4.46q.77-1.63 1.92-2.8 1.16-1.17 2.53-1.9 1.38-.74 2.93-1.09t3.12-.35q2.72 0 4.83.83t3.55 2.43 2.2 3.9q.75 2.31.75 5.28v20.9h-7.91v-20.9q0-3.13-1.37-4.72-1.38-1.58-4.03-1.58-1.22 0-2.26.42-1.04.41-1.82 1.2-.79.78-1.24 1.96-.44 1.19-.44 2.72v20.9h-7.94v-20.9q0-3.29-1.33-4.8-1.33-1.5-3.89-1.5-1.72 0-3.21.85t-2.77 2.32zm61.5-32.83h7.94v32.83h-7.94zm9.03-9.57q0 1.02-.42 1.92-.41.9-1.1 1.57t-1.62 1.07-1.98.4q-1.03 0-1.94-.4t-1.58-1.07-1.07-1.57-.4-1.92q0-1.06.4-1.98.4-.93 1.07-1.6.67-.68 1.58-1.08t1.94-.4q1.05 0 1.98.4t1.62 1.08q.69.67 1.1 1.6.42.92.42 1.98m14.88 42.4h-7.91v-32.83h4.84q1.53 0 2.01 1.44l.51 2.43q.87-.96 1.81-1.76.95-.8 2.02-1.38 1.07-.57 2.3-.91 1.23-.33 2.71-.33 3.1 0 5.1 1.68t2.99 4.46q.77-1.63 1.92-2.8t2.53-1.9q1.38-.74 2.93-1.09t3.12-.35q2.72 0 4.83.83t3.55 2.43 2.19 3.9q.76 2.31.76 5.28v20.9h-7.91v-20.9q0-3.13-1.37-4.72-1.38-1.58-4.04-1.58-1.21 0-2.25.42-1.04.41-1.83 1.2-.78.78-1.23 1.96-.45 1.19-.45 2.72v20.9h-7.93v-20.9q0-3.29-1.33-4.8-1.33-1.5-3.89-1.5-1.73 0-3.21.85-1.49.85-2.77 2.32zm63.04-8.48v-5.54q-3.43.16-5.76.6-2.34.43-3.75 1.1-1.4.67-2.01 1.57-.61.89-.61 1.95 0 2.08 1.23 2.98 1.23.89 3.22.89 2.43 0 4.21-.88 1.77-.88 3.47-2.67m-16.71-17.25-1.4-2.53q5.66-5.18 13.63-5.18 2.88 0 5.15.94 2.27.95 3.84 2.63t2.38 4.01q.82 2.34.82 5.12v20.74h-3.58q-1.12 0-1.73-.34-.61-.33-.96-1.36l-.71-2.36q-1.24 1.12-2.43 1.96-1.18.85-2.46 1.43-1.28.57-2.74.88-1.45.3-3.21.3-2.08 0-3.84-.56t-3.04-1.68-1.99-2.78q-.7-1.67-.7-3.87 0-1.25.41-2.48.42-1.24 1.36-2.36.95-1.12 2.45-2.11 1.51-.99 3.7-1.73 2.19-.73 5.1-1.2 2.91-.46 6.66-.56v-1.92q0-3.29-1.41-4.88-1.41-1.58-4.06-1.58-1.92 0-3.19.45-1.26.45-2.22 1.01t-1.75 1q-.78.45-1.74.45-.83 0-1.41-.43-.57-.43-.93-1.01m43.84 8.51q1.48 0 2.56-.4 1.09-.4 1.81-1.1t1.09-1.7q.37-.99.37-2.17 0-2.43-1.46-3.86-1.45-1.42-4.37-1.42-2.91 0-4.36 1.42-1.46 1.43-1.46 3.86 0 1.15.37 2.14t1.09 1.71 1.82 1.12 2.54.4m8.93 18.69q0-.96-.57-1.57-.58-.6-1.57-.94t-2.32-.5-2.82-.24-3.07-.14-3.09-.26q-1.31.74-2.13 1.73-.81.99-.81 2.31 0 .86.43 1.61t1.38 1.3q.94.54 2.44.85 1.51.3 3.68.3 2.21 0 3.81-.34 1.6-.33 2.64-.92 1.04-.6 1.52-1.41.48-.82.48-1.78m-1.57-33.18h9.44v2.94q0 1.41-1.69 1.73l-2.95.54q.68 1.7.68 3.72 0 2.43-.98 4.4-.98 1.96-2.7 3.34-1.73 1.38-4.08 2.13-2.36.75-5.08.75-.96 0-1.85-.1-.9-.09-1.76-.25-1.54.93-1.54 2.08 0 .99.91 1.45.92.47 2.42.66t3.42.24 3.94.21 3.94.56 3.42 1.26q1.5.87 2.42 2.35.91 1.49.91 3.83 0 2.17-1.07 4.22-1.08 2.05-3.11 3.65t-4.99 2.58q-2.96.97-6.74.97-3.71 0-6.46-.72t-4.58-1.92q-1.82-1.2-2.72-2.77-.89-1.56-.89-3.26 0-2.3 1.39-3.86 1.39-1.55 3.82-2.48-1.31-.67-2.08-1.79-.76-1.12-.76-2.94 0-.74.27-1.52.27-.79.8-1.55.53-.77 1.33-1.46t1.88-1.23q-2.49-1.35-3.92-3.59-1.42-2.24-1.42-5.24 0-2.44.98-4.4.97-1.97 2.72-3.36 1.74-1.4 4.12-2.13 2.39-.74 5.2-.74 2.12 0 3.97.43 1.86.44 3.39 1.27m20.68 11.52h14.91q0-1.54-.43-2.9-.44-1.36-1.3-2.38-.86-1.03-2.19-1.62t-3.09-.59q-3.42 0-5.39 1.95t-2.51 5.54m20.16 4.77h-20.32q.19 2.52.89 4.36.71 1.84 1.86 3.04t2.73 1.8q1.59.59 3.51.59t3.31-.45 2.43-.99q1.04-.55 1.83-.99.78-.45 1.52-.45.99 0 1.47.73l2.27 2.88q-1.31 1.54-2.94 2.58-1.64 1.04-3.41 1.66-1.78.63-3.62.88-1.84.26-3.57.26-3.42 0-6.36-1.14-2.95-1.13-5.12-3.36-2.18-2.22-3.43-5.5t-1.25-7.6q0-3.36 1.09-6.32t3.12-5.15 4.96-3.47 6.61-1.28q3.1 0 5.73.99 2.62.99 4.51 2.89 1.89 1.91 2.96 4.68 1.07 2.76 1.07 6.32 0 1.79-.38 2.41-.39.63-1.47.63m15.68 15.42h-7.91v-32.83h4.83q1.54 0 2.02 1.44l.51 2.43q.87-.96 1.81-1.76t2.02-1.38q1.07-.57 2.3-.91 1.23-.33 2.7-.33 3.11 0 5.11 1.68t2.99 4.46q.77-1.63 1.92-2.8t2.53-1.9q1.37-.74 2.93-1.09 1.55-.35 3.12-.35 2.72 0 4.83.83t3.55 2.43 2.19 3.9q.75 2.31.75 5.28v20.9h-7.9v-20.9q0-3.13-1.38-4.72-1.37-1.58-4.03-1.58-1.21 0-2.25.42-1.04.41-1.83 1.2-.78.78-1.23 1.96-.45 1.19-.45 2.72v20.9h-7.93v-20.9q0-3.29-1.33-4.8-1.33-1.5-3.89-1.5-1.73 0-3.22.85-1.48.85-2.76 2.32z"/></svg>